<svg width="18" height="17" viewBox="0 0 18 17" fill="none" xmlns="http://www.w3.org/2000/svg">
<path fill-rule="evenodd" clip-rule="evenodd" d="M17.9552 14.3359L16.2402 2.25821C16.1782 1.82227 15.9467 1.422 15.5887 1.13202C15.2307 0.842041 14.7707 0.682142 14.2945 0.682129H3.70532C3.22912 0.682148 2.76918 0.842054 2.41124 1.13203C2.0533 1.42202 1.82179 1.82228 1.75987 2.25821L0.0446416 14.3359C0.00829836 14.5915 0.0314765 14.8513 0.112627 15.098C0.193777 15.3447 0.331029 15.5726 0.515209 15.7664C0.699389 15.9602 0.926253 16.1154 1.18064 16.2218C1.43502 16.3281 1.71106 16.3831 1.99031 16.3831H16.0097C16.289 16.3831 16.565 16.3281 16.8193 16.2217C17.0737 16.1154 17.3005 15.9601 17.4847 15.7663C17.6689 15.5725 17.8061 15.3447 17.8872 15.098C17.9684 14.8513 17.9915 14.5915 17.9552 14.3359ZM5.07332 3.70231C5.07332 5.70198 6.83166 7.32561 8.99772 7.32561C11.1638 7.32561 12.9221 5.70198 12.9221 3.70231C12.9178 3.5448 12.847 3.39507 12.7248 3.28508C12.6026 3.17508 12.4387 3.11352 12.2681 3.11352C12.0974 3.11352 11.9335 3.17508 11.8113 3.28508C11.6891 3.39507 11.6183 3.5448 11.614 3.70231C11.614 5.03549 10.4417 6.11784 8.99772 6.11784C7.55375 6.11784 6.38145 5.03549 6.38145 3.70231C6.37713 3.5448 6.30633 3.39507 6.18414 3.28508C6.06195 3.17508 5.89804 3.11352 5.72738 3.11352C5.55673 3.11352 5.39282 3.17508 5.27063 3.28508C5.14844 3.39507 5.07763 3.5448 5.07332 3.70231Z" fill="#FF6400"/>
</svg>
