<svg width="16" height="17" viewBox="0 0 16 17" fill="none" xmlns="http://www.w3.org/2000/svg">
<path fill-rule="evenodd" clip-rule="evenodd" d="M1.85098 0.682129C0.990243 0.682129 0.280396 1.39148 0.280396 2.25222V6.43859C0.280396 7.29933 0.990243 8.00868 1.85098 8.00868H6.03685C6.8976 8.00868 7.60744 7.29933 7.60744 6.43859V2.25222C7.60744 1.39148 6.8976 0.682129 6.03685 0.682129H1.85098ZM10.2249 0.682129C9.36413 0.682129 8.65478 1.39148 8.65478 2.25222V6.43859C8.65478 7.29933 9.36413 8.00868 10.2249 8.00868H14.4107C15.2715 8.00868 15.9813 7.29933 15.9813 6.43859V2.25222C15.9813 1.39148 15.2715 0.682129 14.4107 0.682129H10.2249ZM1.85098 9.05602C0.990243 9.05602 0.280396 9.76586 0.280396 10.6266V14.8125C0.280396 15.6732 0.990243 16.3831 1.85098 16.3831H6.03685C6.8976 16.3831 7.60744 15.6732 7.60744 14.8125V10.6266C7.60744 9.76586 6.8976 9.05602 6.03685 9.05602H1.85098ZM12.3167 9.05602C10.2996 9.05602 8.65478 10.7035 8.65478 12.7206C8.65478 14.7378 10.2996 16.3831 12.3167 16.3831C14.3339 16.3831 15.9813 14.7376 15.9813 12.7206C15.9813 10.7036 14.3339 9.05602 12.3167 9.05602Z" fill="#FF6400"/>
</svg>
