<svg width="19" height="17" viewBox="0 0 19 17" fill="none" xmlns="http://www.w3.org/2000/svg">
<path d="M9.86905 16.3831C9.77828 16.3831 9.68754 16.3593 9.60623 16.3118C9.51791 16.2603 7.41964 15.0277 5.29126 13.1705C4.02979 12.0698 3.02283 10.9781 2.29842 9.92573C1.36099 8.56396 0.88958 7.2541 0.897185 6.03249C0.906087 4.61101 1.40932 3.2742 2.31429 2.26827C3.23455 1.2454 4.46265 0.682129 5.77245 0.682129C7.45108 0.682129 8.9858 1.63345 9.86908 3.14045C10.7524 1.63348 12.2871 0.682129 13.9657 0.682129C15.2031 0.682129 16.3838 1.19037 17.2902 2.11325C18.285 3.12602 18.8502 4.557 18.8409 6.03922C18.8333 7.25871 18.353 8.56658 17.4135 9.92647C16.6869 10.9783 15.6813 12.0695 14.4248 13.1699C12.3042 15.0269 10.221 16.2595 10.1333 16.311C10.0531 16.3582 9.96188 16.3831 9.86905 16.3831Z" fill="#FF6400"/>
</svg>
