<svg width="17" height="17" viewBox="0 0 17 17" fill="none" xmlns="http://www.w3.org/2000/svg">
<path d="M16.136 8.3752V14.9321C16.1357 15.2513 16.0087 15.5573 15.7831 15.7829C15.5574 16.0086 15.2514 16.1355 14.9322 16.1358H11.5951C11.2759 16.1355 10.9699 16.0086 10.7443 15.7829C10.5186 15.5573 10.3917 15.2513 10.3913 14.9321V12.6886C10.3915 12.481 10.3507 12.2754 10.2714 12.0835C10.192 11.8917 10.0756 11.7174 9.92877 11.5706C9.78198 11.4238 9.60768 11.3074 9.41585 11.228C9.22402 11.1487 9.01842 11.1079 8.81082 11.1081H7.87255C7.66495 11.1079 7.45935 11.1487 7.26752 11.228C7.07569 11.3074 6.90139 11.4238 6.7546 11.5706C6.6078 11.7174 6.49139 11.8917 6.41202 12.0835C6.33265 12.2754 6.29188 12.481 6.29204 12.6886V14.9321C6.29171 15.2513 6.16479 15.5573 5.93911 15.7829C5.71344 16.0086 5.40745 16.1355 5.0883 16.1358H1.73645C1.4173 16.1355 1.11131 16.0086 0.885638 15.7829C0.659964 15.5573 0.533039 15.2513 0.532715 14.9321L0.532715 8.3752C0.532784 8.09654 0.588429 7.8207 0.696395 7.56381C0.80436 7.30692 0.962477 7.07414 1.16149 6.8791L6.86699 1.28125C7.25911 0.897212 7.7861 0.682129 8.33496 0.682129C8.88381 0.682129 9.41081 0.897212 9.80292 1.28125L15.5084 6.8791C15.707 7.07436 15.8648 7.30721 15.9726 7.56407C16.0803 7.82093 16.1359 8.09666 16.136 8.3752Z" fill="#FF6400"/>
</svg>
