<svg width="17" height="20" viewBox="0 0 17 20" fill="none" xmlns="http://www.w3.org/2000/svg">
<path d="M8.4981 9.62329C9.74348 9.62329 10.8219 9.17075 11.7031 8.27792C12.5842 7.38528 13.0309 6.29305 13.0309 5.03124C13.0309 3.76981 12.5842 2.67746 11.7029 1.78449C10.8216 0.891955 9.74333 0.439453 8.4981 0.439453C7.25255 0.439453 6.17438 0.891955 5.29326 1.78463C4.41214 2.67731 3.96529 3.76969 3.96529 5.03124C3.96529 6.29305 4.4121 7.38543 5.2934 8.27811C6.17471 9.17064 7.25299 9.62329 8.4981 9.62329ZM16.4292 15.0997C16.4038 14.7282 16.3524 14.323 16.2767 13.8951C16.2004 13.4639 16.102 13.0563 15.9843 12.6838C15.8627 12.2988 15.6973 11.9186 15.4928 11.5542C15.2806 11.176 15.0314 10.8467 14.7517 10.5757C14.4592 10.2923 14.1011 10.0643 13.687 9.89802C13.2744 9.73269 12.8171 9.64891 12.3279 9.64891C12.1358 9.64891 11.95 9.72874 11.5912 9.96542C11.3362 10.1337 11.0803 10.3007 10.8238 10.4666C10.5773 10.6258 10.2433 10.7749 9.83077 10.9099C9.42833 11.0418 9.01971 11.1087 8.61639 11.1087C8.2131 11.1087 7.80459 11.0418 7.4017 10.9099C6.98967 10.775 6.6557 10.6259 6.40943 10.4668C6.15267 10.3007 5.89662 10.1335 5.6413 9.96524C5.28293 9.7286 5.09698 9.64872 4.90489 9.64872C4.41555 9.64872 3.95842 9.73266 3.5459 9.89821C3.1321 10.0642 2.77387 10.2921 2.48111 10.5759C2.20158 10.847 1.95219 11.1761 1.74025 11.5542C1.53596 11.9186 1.37056 12.2986 1.24879 12.684C1.13117 13.0565 1.03284 13.4639 0.956464 13.8951C0.880783 14.3224 0.829398 14.7278 0.803962 15.1002C0.778665 15.4749 0.766124 15.8504 0.766361 16.226C0.766361 17.2212 1.07864 18.0269 1.69446 18.6211C2.30266 19.2074 3.1074 19.5049 4.08604 19.5049H13.1476C14.1263 19.5049 14.9307 19.2076 15.5391 18.6211C16.155 18.0273 16.4673 17.2215 16.4673 16.2258C16.4671 15.8417 16.4544 15.4628 16.4292 15.0997Z" fill="#FF6400"/>
</svg>
