<svg width="19" height="21" viewBox="0 0 19 21" fill="none" xmlns="http://www.w3.org/2000/svg">
<path d="M14.8811 19.1815C14.6955 19.1815 14.5717 19.3052 14.5717 19.4909V19.8312H0.618758V3.89818H3.74349C3.5888 4.39318 3.61973 4.7335 3.61973 5.07382C3.61973 5.25944 3.74349 5.38319 3.92911 5.38319H11.2923C11.478 5.38319 11.6017 5.25944 11.6017 5.07382C11.6017 4.7335 11.6326 4.39318 11.478 3.89818H14.6027V6.03289C14.6027 6.21852 14.7264 6.34227 14.9121 6.34227C15.0977 6.34227 15.2214 6.21852 15.2214 6.03289V3.5888C15.2214 3.40317 15.0977 3.27942 14.9121 3.27942H11.1995C10.8901 2.72254 10.3951 2.2894 9.77637 1.98003C9.7145 0.897199 8.75542 0 7.61072 0C6.46602 0 5.50695 0.866261 5.44507 1.98003C4.82631 2.25847 4.36224 2.72254 4.02193 3.27942H0.309379C0.123752 3.27942 0 3.40317 0 3.5888V20.1406C0 20.3262 0.123752 20.4499 0.309379 20.4499H14.8811C15.0668 20.4499 15.1905 20.3262 15.1905 20.1406V19.4909C15.1905 19.3362 15.0358 19.1815 14.8811 19.1815ZM5.84726 2.47503C5.97101 2.41316 6.06383 2.2894 6.03289 2.10378C6.03289 1.29939 6.71352 0.649696 7.57978 0.649696C8.44604 0.649696 9.12668 1.29939 9.12668 2.10378C9.09574 2.2894 9.18855 2.41316 9.31231 2.47503C10.3023 2.84629 10.9211 3.74349 10.952 4.76444H4.23849C4.23849 3.77442 4.88819 2.87722 5.84726 2.47503Z" fill="#FF6400"/>
<path d="M5.75445 3.41316C6.40415 3.41316 6.96103 2.88721 6.96103 2.20658C6.96103 1.52594 6.43508 1 5.75445 1C5.10475 1 4.54787 1.52594 4.54787 2.20658C4.54787 2.88721 5.10475 3.41316 5.75445 3.41316ZM5.75445 1.61876C6.06383 1.61876 6.34227 1.86626 6.34227 2.20658C6.34227 2.54689 6.09477 2.7944 5.75445 2.7944C5.44507 2.7944 5.16663 2.54689 5.16663 2.20658C5.16663 1.86626 5.44507 1.61876 5.75445 1.61876ZM2.72253 7.00195C2.72253 6.81632 2.59878 6.69257 2.41316 6.69257H0.309379C0.123752 6.69257 0 6.81632 0 7.00195V9.26042C0 9.44605 0.123752 9.5698 0.309379 9.5698H2.41316C2.59878 9.5698 2.72253 9.44605 2.72253 9.26042V7.00195ZM2.10378 8.9201H0.618758V7.28039H2.10378V8.9201ZM2.72253 11.1476C2.72253 10.962 2.59878 10.8383 2.41316 10.8383H0.309379C0.123752 10.8383 0 10.962 0 11.1476V13.4061C0 13.5917 0.123752 13.7155 0.309379 13.7155H2.41316C2.59878 13.7155 2.72253 13.5917 2.72253 13.4061V11.1476ZM2.10378 13.0967H0.618758V11.457H2.10378V13.0967ZM2.41316 15.0149H0.309379C0.123752 15.0149 0 15.1386 0 15.3242V17.5827C0 17.7683 0.123752 17.8921 0.309379 17.8921H2.41316C2.59878 17.8921 2.72253 17.7683 2.72253 17.5827V15.3242C2.72253 15.1386 2.56785 15.0149 2.41316 15.0149ZM2.10378 17.2733H0.618758V15.6336H2.10378V17.2733ZM18.408 9.69355L12.7774 6.6307C12.6845 6.56882 12.5608 6.56882 12.4989 6.6307C12.1277 6.81633 7.64166 9.22948 6.89915 9.63167C6.80634 9.69355 6.74446 9.8173 6.74446 9.91012V14.8602C6.74446 14.953 6.80634 15.0767 6.89915 15.1077L12.4989 18.6346C12.5917 18.6965 12.7155 18.6965 12.8083 18.6346L18.439 15.6336C18.5318 15.5717 18.5937 15.4789 18.5937 15.3552V9.97199C18.5937 9.87918 18.5318 9.75543 18.408 9.69355ZM12.6536 7.24946L17.6655 9.97199L16.3661 10.6836L11.3542 7.93009L12.6536 7.24946ZM15.1286 11.5189L9.93106 8.70354L10.6736 8.30134L16.0258 11.2404V12.7564L15.2833 13.1586V11.7973C15.2833 11.6736 15.2214 11.5498 15.1286 11.5189ZM9.28137 9.04385L14.3242 11.7973L12.6536 12.7255L7.6726 9.91012L9.28137 9.04385ZM7.33228 14.6436V10.4051L12.3133 13.2205V17.7993L7.33228 14.6436ZM12.963 17.8302V13.2514L14.6646 12.3233V13.6845C14.6646 13.8083 14.7264 13.9011 14.8193 13.963C14.9121 14.0249 15.0358 14.0249 15.1286 13.963L16.4899 13.2205C16.5827 13.1586 16.6446 13.0658 16.6446 12.942V11.2404L17.9749 10.5289V15.2005L12.963 17.8302ZM8.32229 8.11572C8.32229 7.93009 8.19854 7.80634 8.01292 7.80634H3.5888C3.40317 7.80634 3.27942 7.93009 3.27942 8.11572C3.27942 8.30134 3.40317 8.4251 3.5888 8.4251H8.01292C8.16761 8.4251 8.32229 8.30134 8.32229 8.11572ZM6.1257 11.983H3.55786C3.37223 11.983 3.24848 12.1067 3.24848 12.2923C3.24848 12.478 3.37223 12.6017 3.55786 12.6017H6.1257C6.31133 12.6017 6.43508 12.478 6.43508 12.2923C6.43508 12.1067 6.28039 11.983 6.1257 11.983ZM3.06285 16.438C3.06285 16.6236 3.1866 16.7474 3.37223 16.7474H7.4251C7.61072 16.7474 7.73447 16.6236 7.73447 16.438C7.73447 16.2524 7.61072 16.1286 7.4251 16.1286H3.37223C3.21754 16.1286 3.06285 16.2833 3.06285 16.438Z" fill="#FF6400"/>
</svg>
