<svg width="33" height="19" viewBox="0 0 33 19" fill="none" xmlns="http://www.w3.org/2000/svg">
<path d="M0.463211 8.54036C-0.0174345 9.021 -0.0174345 9.80028 0.463211 10.2809L8.29578 18.1135C8.77642 18.5941 9.5557 18.5941 10.0363 18.1135C10.517 17.6329 10.517 16.8536 10.0363 16.3729L3.07407 9.41064L10.0363 2.44836C10.517 1.96772 10.517 1.18844 10.0363 0.707792C9.5557 0.227146 8.77642 0.227146 8.29578 0.707792L0.463211 8.54036ZM30.872 10.6414C31.5517 10.6414 32.1027 10.0904 32.1027 9.41064C32.1027 8.73091 31.5517 8.17988 30.872 8.17988V10.6414ZM1.3335 10.6414L30.872 10.6414V8.17988L1.3335 8.17988L1.3335 10.6414Z" fill="white"/>
</svg>
