<svg width="22" height="19" viewBox="0 0 22 19" fill="none" xmlns="http://www.w3.org/2000/svg">
<path d="M16.2708 0C13.9755 0 11.8919 1.60413 11 3.77331C10.1081 1.60327 8.0245 0 5.72917 0C2.57033 0 0 2.43003 0 5.41644C0 11.2749 8.94117 17.6099 10.7332 18.8197L11 19L11.2668 18.8197C13.0598 17.6099 22 11.274 22 5.41644C22 2.43003 19.4297 0 16.2708 0ZM11 17.9332C6.28742 14.6963 0.916667 9.552 0.916667 5.41644C0.916667 2.90754 3.07542 0.86663 5.72917 0.86663C8.24817 0.86663 10.5417 3.34519 10.5417 6.06641H11.4583C11.4583 3.34519 13.7518 0.86663 16.2708 0.86663C18.9246 0.86663 21.0833 2.90754 21.0833 5.41644C21.0833 9.552 15.7126 14.6963 11 17.9332Z" fill="white"/>
</svg>
