<svg width="23" height="20" viewBox="0 0 23 20" fill="none" xmlns="http://www.w3.org/2000/svg">
<path d="M6.28744 15.1523L6.28745 15.1523C8.59214 17.1509 10.8733 18.5692 11.4994 18.946C12.1226 18.5683 14.3875 17.1503 16.6829 15.1527C18.2492 13.7896 19.4768 12.4598 20.3492 11.2047L21.1591 11.7678L20.3492 11.2047C21.4785 9.5803 21.9917 8.10844 21.9999 6.81764C22.0101 5.1828 21.3811 3.61881 20.301 2.52594L20.301 2.52593C19.3181 1.53149 18.0575 1 16.751 1C14.9875 1 13.3318 1.99408 12.3614 3.63945L11.5 5.09989L10.6387 3.63944C9.66826 1.99405 8.01256 1 6.24909 1C4.86733 1 3.55789 1.58694 2.55786 2.69158M6.28744 15.1523L1.0001 6.8216C1.01005 5.24394 1.57133 3.78134 2.55786 2.69158M6.28744 15.1523C4.71529 13.7891 3.48698 12.4594 2.61823 11.2052L2.61822 11.2052M6.28744 15.1523L2.61822 11.2052M2.55786 2.69158L1.81803 2.02181L2.55786 2.69158ZM2.61822 11.2052C1.49293 9.58064 0.992032 8.11047 1.0001 6.82164L2.61822 11.2052ZM11.6653 19.0445L11.6649 19.0443L11.6653 19.0445Z" stroke="white" stroke-width="2"/>
</svg>
