<svg width="1593" height="642" viewBox="0 0 1593 642" fill="none" xmlns="http://www.w3.org/2000/svg">
<g clip-path="url(#clip0_1885_24986)">
<path d="M27.4134 465.888L175.236 611.7C194.635 630.836 220.713 641.553 247.873 641.553H1534C1566.09 641.553 1592.11 615.355 1592.11 583.04V257.565C1592.11 222.93 1576.32 190.214 1549.26 168.82L1365.11 23.2081C1346.09 8.17277 1322.62 0 1298.44 0H58.1216C26.0219 0 0 26.1972 0 58.513V400.21C0 424.921 9.88033 448.593 27.4134 465.888Z" fill="#FF6400"/>
<path d="M348.699 545.561V512.203H314.395V458.437H363.902V492.187H452.002V444.701H348.699V411.343H314.395V324.613H348.699V290.861H467.206V324.613H501.9V377.985H452.002V344.627H363.902V391.721H467.206V424.687H501.9V512.203H467.206V545.561H348.699Z" fill="white"/>
<path d="M560.98 545.561V324.613H595.285V290.861H644.793V344.627H610.488V391.721H629.589V357.971H664.284V324.613H698.589V290.861H748.486V344.627H713.792V377.985H679.487V411.343H644.793V424.687H679.487V458.437H713.792V492.187H748.486V545.561H698.589V512.203H664.284V478.452H629.589V444.701H610.488V545.561H560.98Z" fill="white"/>
<path d="M841.867 545.561V512.203H807.566V290.861H857.077V492.187H945.172V458.437H995.07V512.203H960.374V545.561H841.867Z" fill="white"/>
<path d="M1054.1 545.561V357.971V324.613H1088.4V290.861H1122.71H1172.61H1206.91V324.613H1241.6V357.971V545.561H1191.71V478.452H1103.6V545.561H1054.1ZM1103.6 424.687H1191.71V377.985V344.627H1157.41H1137.91H1103.6V377.985V424.687Z" fill="white"/>
<path d="M1300.69 545.561V290.861H1419.19V324.613H1453.5V357.971H1488.19V478.452H1453.5V512.203H1419.19V545.561H1300.69ZM1350.19 492.187H1403.99V458.437H1438.29V377.985H1403.99V344.627H1350.19V492.187Z" fill="white"/>
</g>
<defs>
<clipPath id="clip0_1885_24986">
<rect width="1592.65" height="642" fill="white"/>
</clipPath>
</defs>
</svg>
