<svg width="28" height="24" viewBox="0 0 28 24" fill="none" xmlns="http://www.w3.org/2000/svg">
<path d="M14 24C13.8583 24 13.7168 23.9637 13.5899 23.8911C13.4521 23.8123 10.1779 21.9282 6.85673 19.0894C4.88831 17.4069 3.31704 15.7381 2.18665 14.1295C0.723873 12.0479 -0.0117258 10.0457 0.000141317 8.1784C0.0140319 6.00557 0.799287 3.96216 2.21142 2.42454C3.6474 0.861005 5.56375 0 7.60758 0C10.2269 0 12.6218 1.45416 14 3.75772C15.3783 1.45421 17.7731 0 20.3925 0C22.3234 0 24.1656 0.776888 25.5801 2.18758C27.1323 3.73566 28.0143 5.92302 27.9998 8.1887C27.9879 10.0528 27.2385 12.0519 25.7725 14.1306C24.6386 15.7385 23.0695 17.4065 21.1088 19.0885C17.7998 21.9271 14.5492 23.8111 14.4124 23.8899C14.2871 23.962 14.1448 24 14 24Z" fill="#FF6400"/>
</svg>
