<svg width="10" height="10" viewBox="0 0 10 10" fill="none" xmlns="http://www.w3.org/2000/svg">
<path d="M5.91611 5.00009L9.80997 1.10608C10.0633 0.852786 10.0633 0.443234 9.80997 0.18997C9.55668 -0.0633234 9.14714 -0.0633234 8.89388 0.18997L4.99994 4.08395L1.10614 0.18997C0.852734 -0.0633234 0.443344 -0.0633234 0.190057 0.18997C-0.0633522 0.443264 -0.0633522 0.852786 0.190057 1.10608L4.08382 5.00009L0.190087 8.89407C-0.0633218 9.14737 -0.0633218 9.55692 0.190087 9.81018C0.250172 9.87043 0.321567 9.91821 0.400172 9.95079C0.478777 9.98336 0.563043 10.0001 0.64813 10C0.813951 10 0.979833 9.93652 1.10617 9.81018L4.99994 5.9162L8.89388 9.81018C8.95396 9.87043 9.02536 9.91821 9.10396 9.95079C9.18257 9.98336 9.26684 10.0001 9.35192 10C9.51774 10 9.68363 9.93652 9.80997 9.81018C10.0633 9.55689 10.0633 9.14737 9.80997 8.89407L5.91611 5.00009Z" fill="#929292"/>
</svg>
