<svg width="19" height="19" viewBox="0 0 19 19" fill="none" xmlns="http://www.w3.org/2000/svg">
<path fill-rule="evenodd" clip-rule="evenodd" d="M9.5 0C14.7383 0 19 4.2617 19 9.5C19 14.7383 14.7383 19 9.5 19C4.2617 19 0 14.7383 0 9.5C0 4.2617 4.2617 0 9.5 0ZM15.428 14.25C14.7169 15.1392 13.8149 15.857 12.7887 16.3503C11.7626 16.8436 10.6386 17.0998 9.5 17.0998C8.36143 17.0998 7.23745 16.8436 6.21129 16.3503C5.18514 15.857 4.28311 15.1392 3.572 14.25C4.28311 13.3608 5.18514 12.643 6.21129 12.1497C7.23745 11.6564 8.36143 11.4002 9.5 11.4002C10.6386 11.4002 11.7626 11.6564 12.7887 12.1497C13.8149 12.643 14.7169 13.3608 15.428 14.25ZM9.5 9.5C9.87427 9.5 10.2449 9.42628 10.5906 9.28306C10.9364 9.13983 11.2506 8.9299 11.5153 8.66525C11.7799 8.40061 11.9898 8.08643 12.1331 7.74065C12.2763 7.39487 12.35 7.02427 12.35 6.65C12.35 6.27573 12.2763 5.90513 12.1331 5.55935C11.9898 5.21357 11.7799 4.89939 11.5153 4.63475C11.2506 4.3701 10.9364 4.16017 10.5906 4.01694C10.2449 3.87372 9.87427 3.8 9.5 3.8C8.74413 3.8 8.01922 4.10027 7.48475 4.63475C6.95027 5.16922 6.65 5.89413 6.65 6.65C6.65 7.40587 6.95027 8.13078 7.48475 8.66525C8.01922 9.19973 8.74413 9.5 9.5 9.5Z" fill="#FF6400"/>
</svg>
