<svg width="14" height="16" viewBox="0 0 14 16" fill="none" xmlns="http://www.w3.org/2000/svg">
<path d="M0.970822 4.6875L1.79741 14.7105C1.85665 15.4333 2.4696 16 3.19194 16H10.8081C11.5304 16 12.1434 15.4333 12.2026 14.7105L13.0292 4.6875H0.970822ZM4.66623 14.125C4.42195 14.125 4.21643 13.9341 4.20093 13.6855L3.73427 6.12303C3.71831 5.86441 3.91381 5.64194 4.17085 5.62591C4.43744 5.60713 4.64937 5.80581 4.66576 6.06444L5.13243 13.6269C5.14895 13.8948 4.93799 14.125 4.66623 14.125ZM7.46667 13.6562C7.46667 13.9153 7.25794 14.125 7 14.125C6.74206 14.125 6.53333 13.9153 6.53333 13.6562V6.09375C6.53333 5.83466 6.74206 5.625 7 5.625C7.25794 5.625 7.46667 5.83466 7.46667 6.09375V13.6562ZM10.2657 6.12306L9.79907 13.6856C9.78373 13.9316 9.57955 14.1367 9.30415 14.1241C9.04711 14.1081 8.85161 13.8856 8.86757 13.627L9.33424 6.06447C9.3502 5.80584 9.57578 5.61769 9.82915 5.62594C10.0862 5.64197 10.2817 5.86444 10.2657 6.12306ZM13.0667 1.875H10.2667V1.40625C10.2667 0.630813 9.63866 0 8.86667 0H5.13333C4.36134 0 3.73333 0.630813 3.73333 1.40625V1.875H0.933333C0.417853 1.875 0 2.29472 0 2.8125C0 3.33022 0.417853 3.75 0.933333 3.75H13.0667C13.5821 3.75 14 3.33022 14 2.8125C14 2.29472 13.5821 1.875 13.0667 1.875ZM9.33333 1.875H4.66667V1.40625C4.66667 1.14762 4.87586 0.9375 5.13333 0.9375H8.86667C9.12414 0.9375 9.33333 1.14762 9.33333 1.40625V1.875Z" fill="#FF6400"/>
</svg>
