<svg width="15" height="19" viewBox="0 0 15 19" fill="none" xmlns="http://www.w3.org/2000/svg">
<path d="M11.0705 4.83663L10.9498 3.20935C10.8139 1.41633 9.30414 -3.8147e-06 7.49245 -3.8147e-06C5.68077 -3.8147e-06 4.15593 1.41633 4.03515 3.20935L3.91437 4.83663H2.17817C1.4686 4.83663 0.8798 5.39413 0.819411 6.1023L0.00415215 17.5385C-0.0260426 17.9151 0.109834 18.2918 0.366489 18.563C0.623145 18.8343 0.985482 19 1.36292 19H13.6371C14.0145 19 14.3769 18.8493 14.6335 18.563C14.8902 18.2918 15.026 17.9151 14.9958 17.5385L14.1806 6.20777C14.1202 5.43933 13.4861 4.8517 12.7161 4.8517H11.0705V4.83663ZM4.94099 3.26962C5.03158 1.94369 6.14879 0.904041 7.49245 0.904041C8.83612 0.904041 9.95332 1.94369 10.0439 3.26962L10.1496 4.83663H4.82022L4.94099 3.26962ZM13.2747 6.26804L14.09 17.5987C14.1051 17.7193 14.0598 17.8398 13.9692 17.9453C13.8786 18.0357 13.7579 18.096 13.6371 18.096H1.36292C1.24214 18.096 1.12136 18.0508 1.03077 17.9453C0.94019 17.8398 0.894897 17.7343 0.909995 17.5987L1.72525 6.16257C1.74035 5.92149 1.93662 5.74068 2.17817 5.74068H3.85398L3.7634 6.94607C3.7483 7.20222 3.92947 7.41316 4.18613 7.42823H4.21632C4.45788 7.42823 4.65414 7.24742 4.66924 7.00634L4.75983 5.74068H10.2251L10.3157 7.00634C10.3308 7.26249 10.5421 7.4433 10.7988 7.42823C11.0554 7.41316 11.2366 7.20222 11.2215 6.94607L11.1309 5.74068H12.7161C13.003 5.74068 13.2446 5.96669 13.2747 6.26804Z" fill="white"/>
</svg>
