<svg width="29" height="29" viewBox="0 0 29 29" fill="none" xmlns="http://www.w3.org/2000/svg">
<path d="M7.27146 15.3817H5.97093C5.80412 15.3817 5.64098 15.4306 5.50163 15.5223C5.36229 15.614 5.25284 15.7445 5.1868 15.8977L1.58662 24.2807L10.1367 19.9138C9.11318 18.4976 8.10045 16.9356 7.27146 15.3817ZM23.8129 15.8977C23.747 15.7445 23.6376 15.614 23.4983 15.5223C23.3589 15.4306 23.1958 15.3817 23.029 15.3817H21.7286C20.1629 18.3155 17.882 21.3473 16.4311 23.0153C15.4106 24.1858 13.588 24.1844 12.5691 23.0153C12.4649 22.8957 11.9208 22.2657 11.1714 21.2971L9.63002 22.0847L15.4609 27.9043L26.5093 22.1766L23.8129 15.8977ZM0.534744 26.7306L0.0697255 27.8136C-0.171053 28.3741 0.24129 29 0.853574 29H13.374C13.4523 28.9418 13.4532 28.9453 13.8735 28.7274L8.03412 22.9001L0.534744 26.7306ZM28.9303 27.8137L27.1833 23.7457L17.0481 29H28.1464C28.7572 29 29.1714 28.3752 28.9303 27.8137ZM15.3529 7.66486C15.3529 7.19537 14.9702 6.81372 14.5 6.81372C14.0296 6.81372 13.647 7.19537 13.647 7.66486C13.647 8.13413 14.0296 8.51605 14.5 8.51605C14.9701 8.51605 15.3529 8.13413 15.3529 7.66486Z" fill="#FF6400"/>
<path d="M15.1436 21.8416C15.4307 21.5119 22.176 13.7092 22.176 8.34567C22.176 -2.7143 6.82385 -2.84927 6.82385 8.34567C6.82385 13.7092 13.5692 21.5119 13.8563 21.8416C14.1964 22.2317 14.8042 22.2313 15.1436 21.8416ZM11.9412 7.66485C11.9412 6.25677 13.089 5.11138 14.4999 5.11138C15.9106 5.11138 17.0585 6.25682 17.0585 7.66485C17.0585 9.07271 15.9106 10.2181 14.4999 10.2181C13.089 10.2181 11.9412 9.07271 11.9412 7.66485Z" fill="#FF6400"/>
</svg>
