<svg width="29" height="29" viewBox="0 0 29 29" fill="none" xmlns="http://www.w3.org/2000/svg">
<path d="M14.5049 7.05371C13.5277 7.05355 12.56 7.24591 11.6572 7.61978C10.7543 7.99366 9.93399 8.54174 9.24301 9.23271C8.55202 9.92369 8.00393 10.744 7.63005 11.6468C7.25616 12.5497 7.06381 13.5173 7.06396 14.4945C7.06381 15.4717 7.25616 16.4393 7.63005 17.3422C8.00393 18.245 8.55202 19.0653 9.24301 19.7563C9.93399 20.4473 10.7543 20.9953 11.6572 21.3692C12.56 21.7431 13.5277 21.9354 14.5049 21.9353C15.4821 21.9354 16.4497 21.7431 17.3526 21.3692C18.2554 20.9953 19.0758 20.4473 19.7668 19.7563C20.4577 19.0653 21.0058 18.245 21.3797 17.3422C21.7536 16.4393 21.946 15.4717 21.9458 14.4945C21.946 13.5173 21.7536 12.5497 21.3797 11.6468C21.0058 10.744 20.4577 9.92369 19.7668 9.23271C19.0758 8.54174 18.2554 7.99366 17.3526 7.61978C16.4497 7.24591 15.4821 7.05355 14.5049 7.05371ZM14.5049 19.3241C13.55 19.3239 12.6166 19.0405 11.8228 18.5099C11.0289 17.9792 10.4102 17.2251 10.0449 16.3429C9.6796 15.4607 9.58408 14.4899 9.77043 13.5534C9.95677 12.6169 10.4166 11.7567 11.0918 11.0815C11.767 10.4063 12.6273 9.94647 13.5638 9.76013C14.5003 9.57378 15.4711 9.6693 16.3533 10.0346C17.2356 10.3999 17.9897 11.0186 18.5203 11.8124C19.051 12.6063 19.3344 13.5396 19.3346 14.4945C19.3349 15.1288 19.2102 15.757 18.9676 16.3431C18.725 16.9292 18.3693 17.4617 17.9207 17.9103C17.4722 18.3588 16.9396 18.7145 16.3535 18.9571C15.7674 19.1997 15.1392 19.3244 14.5049 19.3241Z" fill="#FF6400"/>
<path d="M20.4791 0.0910906C17.8111 -0.0333655 11.2027 -0.027324 8.53232 0.0910906C6.18573 0.201047 4.11586 0.767745 2.44715 2.43642C-0.341684 5.22521 0.0147746 8.98306 0.0147746 14.4942C0.0147746 20.1346 -0.299392 23.8054 2.44715 26.5519C5.24686 29.3504 9.05915 28.9843 14.5051 28.9843C20.0924 28.9843 22.0209 28.9879 23.9966 28.223C26.6827 27.1802 28.7103 24.7793 28.9084 20.4669C29.0341 17.7977 29.0269 11.1906 28.9084 8.52028C28.6692 3.42966 25.9372 0.34242 20.4791 0.0910906ZM24.7022 24.7068C22.874 26.535 20.3377 26.3719 14.4701 26.3719C8.4284 26.3719 6.00569 26.4613 4.2379 24.6887C2.20186 22.6624 2.5704 19.4084 2.5704 14.4748C2.5704 7.79891 1.88528 2.99104 8.58549 2.64788C10.1249 2.5935 10.578 2.57538 14.4532 2.57538L14.5075 2.61163C20.9467 2.61163 25.9988 1.93739 26.3021 8.63627C26.3709 10.1648 26.3867 10.6239 26.3867 14.493C26.3854 20.4644 26.499 22.9016 24.7022 24.7068Z" fill="#FF6400"/>
<path d="M22.2407 8.49852C23.2011 8.49852 23.9795 7.72005 23.9795 6.75976C23.9795 5.79947 23.2011 5.021 22.2407 5.021C21.2804 5.021 20.502 5.79947 20.502 6.75976C20.502 7.72005 21.2804 8.49852 22.2407 8.49852Z" fill="#FF6400"/>
</svg>
