<svg width="29" height="29" viewBox="0 0 29 29" fill="none" xmlns="http://www.w3.org/2000/svg">
<path d="M28.0672 20.88C27.9879 20.8172 22.2333 16.6692 20.6538 16.9669C19.8998 17.1003 19.4687 17.6146 18.6035 18.6441C18.4643 18.8104 18.1298 19.2086 17.8698 19.4919C17.323 19.3136 16.7897 19.0965 16.2738 18.8423C13.6112 17.546 11.4598 15.3946 10.1635 12.732C9.9093 12.2161 9.69221 11.6828 9.51393 11.136C9.79813 10.875 10.1964 10.5405 10.3665 10.3975C11.3912 9.53713 11.9064 9.106 12.0398 8.35007C12.3134 6.78407 8.16833 0.989867 8.12483 0.937667C7.93672 0.66905 7.69127 0.445584 7.40623 0.283423C7.1212 0.121261 6.80369 0.0244541 6.47667 0C4.7966 0 0 6.22243 0 7.2703C0 7.3312 0.0879667 13.5217 7.72173 21.287C15.4792 28.912 21.6688 29 21.7297 29C22.7785 29 29 24.2034 29 22.5233C28.9761 22.1974 28.88 21.8808 28.7186 21.5966C28.5573 21.3124 28.3348 21.0676 28.0672 20.88Z" fill="#FF6400"/>
</svg>
