<svg width="15" height="15" viewBox="0 0 15 15" fill="none" xmlns="http://www.w3.org/2000/svg">
<path d="M7.49987 0C3.36474 0 0 3.36441 0 7.5C0 11.6356 3.36474 15 7.49987 15C11.6358 15 15 11.6356 15 7.5C15 3.36441 11.6358 0 7.49987 0ZM7.49987 14.0001C3.91578 14.0001 0.999964 11.0843 0.999964 7.5C0.999964 3.91571 3.91605 0.999946 7.49987 0.999946C11.0845 0.999946 14 3.91571 14 7.5C14 11.0843 11.0848 14.0001 7.49987 14.0001Z" fill="#FF6400"/>
<path d="M11.2138 6.95706H7.99943V2.70696C7.99943 2.57437 7.94677 2.4472 7.85304 2.35342C7.75931 2.25964 7.63217 2.20692 7.49958 2.20685C7.36703 2.20699 7.23996 2.25974 7.14629 2.35352C7.05262 2.44729 7 2.57441 7 2.70696V7.95674H11.2138C11.3435 7.95248 11.4665 7.89795 11.5568 7.80468C11.647 7.71141 11.6975 7.5867 11.6975 7.4569C11.6975 7.32711 11.647 7.2024 11.5568 7.10912C11.4665 7.01585 11.3435 6.96132 11.2138 6.95706Z" fill="#FF6400"/>
</svg>
