<svg width="15" height="15" viewBox="0 0 15 15" fill="none" xmlns="http://www.w3.org/2000/svg">
<path d="M7.49973 0C3.36468 0 0 3.36441 0 7.5C0 11.6356 3.36468 15 7.49973 15C11.6356 15 14.9997 11.6356 14.9997 7.5C14.9997 3.36441 11.6356 0 7.49973 0ZM7.49973 14.0001C3.91571 14.0001 0.999946 11.0843 0.999946 7.5C0.999946 3.91571 3.91598 0.999946 7.49973 0.999946C11.0843 0.999946 13.9998 3.91571 13.9998 7.5C13.9998 11.0843 11.0846 14.0001 7.49973 14.0001Z" fill="#FF6400"/>
<path d="M11.2137 6.95706H7.99941V2.70696C7.99941 2.57437 7.94675 2.4472 7.85302 2.35342C7.75929 2.25964 7.63216 2.20692 7.49957 2.20685C7.36703 2.20699 7.23996 2.25974 7.14629 2.35352C7.05262 2.44729 7 2.57441 7 2.70696V7.95674H11.2137C11.3435 7.95248 11.4664 7.89795 11.5567 7.80468C11.647 7.71141 11.6974 7.5867 11.6974 7.4569C11.6974 7.32711 11.647 7.2024 11.5567 7.10912C11.4664 7.01585 11.3435 6.96132 11.2137 6.95706Z" fill="#FF6400"/>
</svg>
