<svg width="15" height="14" viewBox="0 0 15 14" fill="none" xmlns="http://www.w3.org/2000/svg">
<path d="M13.3645 0H11.9626V1.4C11.9626 1.68 11.729 1.86667 11.4953 1.86667C11.2617 1.86667 11.028 1.68 11.028 1.4V0H3.5514V1.4C3.5514 1.68 3.31776 1.86667 3.08411 1.86667C2.85047 1.86667 2.61682 1.68 2.61682 1.4V0H1.21495C0.514019 0 0 0.606667 0 1.4V3.08H14.9533V1.4C14.9533 0.606667 14.1122 0 13.3645 0ZM0 4.06V12.6C0 13.44 0.514019 14 1.26168 14H13.4112C14.1589 14 15 13.3933 15 12.6V4.06H0ZM4.15888 11.9H3.03738C2.85047 11.9 2.66355 11.76 2.66355 11.5267V10.36C2.66355 10.1733 2.80374 9.98667 3.03738 9.98667H4.20561C4.39252 9.98667 4.57944 10.1267 4.57944 10.36V11.5267C4.53271 11.76 4.39252 11.9 4.15888 11.9ZM4.15888 7.7H3.03738C2.85047 7.7 2.66355 7.56 2.66355 7.32667V6.16C2.66355 5.97333 2.80374 5.78667 3.03738 5.78667H4.20561C4.39252 5.78667 4.57944 5.92667 4.57944 6.16V7.32667C4.53271 7.56 4.39252 7.7 4.15888 7.7ZM7.8972 11.9H6.72897C6.54206 11.9 6.35514 11.76 6.35514 11.5267V10.36C6.35514 10.1733 6.49533 9.98667 6.72897 9.98667H7.8972C8.08411 9.98667 8.27103 10.1267 8.27103 10.36V11.5267C8.27103 11.76 8.13084 11.9 7.8972 11.9ZM7.8972 7.7H6.72897C6.54206 7.7 6.35514 7.56 6.35514 7.32667V6.16C6.35514 5.97333 6.49533 5.78667 6.72897 5.78667H7.8972C8.08411 5.78667 8.27103 5.92667 8.27103 6.16V7.32667C8.27103 7.56 8.13084 7.7 7.8972 7.7ZM11.6355 11.9H10.4673C10.2804 11.9 10.0935 11.76 10.0935 11.5267V10.36C10.0935 10.1733 10.2336 9.98667 10.4673 9.98667H11.6355C11.8224 9.98667 12.0093 10.1267 12.0093 10.36V11.5267C12.0093 11.76 11.8692 11.9 11.6355 11.9ZM11.6355 7.7H10.4673C10.2804 7.7 10.0935 7.56 10.0935 7.32667V6.16C10.0935 5.97333 10.2336 5.78667 10.4673 5.78667H11.6355C11.8224 5.78667 12.0093 5.92667 12.0093 6.16V7.32667C12.0093 7.56 11.8692 7.7 11.6355 7.7Z" fill="#FF6400"/>
</svg>
